<?xml version="1.0" standalone="no"?>
<!DOCTYPE svg PUBLIC "-//W3C//DTD SVG 20010904//EN"
 "http://www.w3.org/TR/2001/REC-SVG-20010904/DTD/svg10.dtd">
<svg version="1.0" xmlns="http://www.w3.org/2000/svg"
 width="300.000000pt" height="300.000000pt" viewBox="0 0 300.000000 300.000000"
 preserveAspectRatio="xMidYMid meet">
<metadata>
Created by potrace 1.14, written by Peter Selinger 2001-2017
</metadata>
<g transform="translate(0.000000,300.000000) scale(0.100000,-0.100000)"
fill="#000000" stroke="none">
<path d="M2472 2903 c-11 -16 -110 -208 -220 -428 -109 -220 -207 -415 -216
-433 -20 -37 -41 -50 -74 -47 -13 1 -26 -4 -29 -12 -3 -7 -10 -13 -15 -13 -6
0 -6 6 1 14 9 11 9 16 0 22 -8 5 -9 3 -4 -6 6 -10 4 -12 -9 -7 -10 4 -15 3
-11 -3 8 -13 -1 -13 -26 1 -24 12 -16 29 11 24 12 -2 18 0 15 5 -6 9 -24 8
-42 -3 -7 -5 -21 1 -32 12 -11 11 -22 17 -25 13 -3 -3 -6 2 -6 11 0 9 -6 14
-13 11 -7 -2 -26 10 -42 28 -17 18 -26 30 -21 26 5 -4 23 3 40 16 17 13 51 34
76 47 25 13 47 26 50 29 3 3 26 16 52 30 26 13 46 26 44 27 -1 1 -19 -2 -39
-8 -21 -5 -42 -7 -49 -3 -7 4 -8 3 -4 -4 4 -7 -7 -14 -31 -18 -21 -4 -52 -13
-69 -20 -17 -7 -34 -10 -37 -7 -4 3 -12 1 -20 -5 -10 -8 -13 -7 -14 8 -2 18
12 21 32 8 6 -4 17 -2 25 3 12 8 11 9 -5 7 -11 -2 -19 2 -18 9 3 13 -15 12
-36 -1 -11 -7 -13 -5 -8 8 4 10 3 15 -3 11 -6 -4 -8 -17 -6 -31 3 -16 1 -22
-6 -18 -8 5 -9 1 -4 -12 5 -14 4 -16 -5 -7 -6 6 -8 17 -3 24 4 7 9 26 11 43 2
16 8 34 13 41 5 7 6 16 2 20 -4 5 2 5 12 1 15 -5 17 -4 8 7 -7 8 -8 17 -4 21
7 8 8 13 11 42 0 9 6 12 13 8 7 -4 8 -3 4 4 -4 6 12 64 34 128 23 64 44 133
47 153 4 34 4 35 -11 16 -9 -10 -60 -105 -113 -210 -96 -189 -143 -271 -143
-247 0 7 -18 29 -40 49 -21 20 -37 40 -34 45 3 5 2 7 -3 6 -4 -1 -32 22 -61
52 -30 31 -48 44 -40 30 7 -14 15 -27 18 -30 20 -20 28 -48 17 -59 -9 -9 -8
-11 5 -6 26 10 42 -35 20 -54 -15 -12 -14 -12 6 -6 22 6 22 5 10 -14 -12 -19
-28 -26 -51 -22 -5 1 -6 -3 -2 -9 4 -6 15 -8 25 -5 23 7 48 -31 31 -48 -23
-23 -51 -17 -72 16 -12 17 -18 23 -14 12 4 -11 8 -25 8 -32 0 -7 4 -10 9 -7 4
3 8 1 8 -4 0 -5 -13 -9 -30 -9 -18 0 -27 4 -23 11 5 7 2 7 -8 0 -8 -6 -29 -12
-48 -12 -32 -1 -49 -7 -40 -16 2 -2 24 -7 49 -11 46 -7 71 -12 80 -15 3 -1 11
-3 19 -4 8 0 16 -7 19 -15 3 -10 0 -11 -9 -5 -8 4 -22 9 -32 9 -14 1 -12 -3
10 -22 19 -16 24 -26 16 -29 -7 -3 -13 -10 -13 -16 0 -6 7 -4 17 3 15 12 16
12 11 -2 -5 -13 -2 -16 13 -12 20 6 27 25 7 20 -15 -3 -19 36 -6 55 7 10 8 9
4 -4 -3 -10 -3 -18 1 -18 3 0 12 8 20 18 13 16 13 16 5 -3 -10 -23 -10 -35 1
-52 5 -8 4 -13 -2 -13 -6 0 -11 -7 -11 -15 0 -8 -5 -15 -11 -15 -6 0 -9 -6 -6
-14 3 -8 -1 -17 -10 -20 -9 -4 -13 -9 -10 -13 4 -3 2 -14 -3 -24 -8 -14 -20
-17 -55 -14 -29 2 -43 -1 -39 -7 4 -6 -5 -2 -20 7 -15 10 -26 13 -26 6 0 -6 8
-11 18 -11 15 -1 15 -3 -4 -18 -21 -18 -43 -89 -24 -77 6 3 10 -1 10 -9 0 -9
3 -15 8 -15 4 1 18 1 30 0 l24 -1 -27 -47 c-110 -190 -256 -373 -298 -373 -11
0 -30 8 -41 17 -12 10 -15 11 -8 3 18 -21 15 -35 -5 -19 -11 10 -14 10 -9 2 9
-17 -6 -17 -23 0 -10 10 -12 9 -9 -2 2 -7 -3 -16 -11 -19 -9 -3 -11 0 -7 9 4
8 -1 4 -11 -7 -10 -12 -27 -26 -38 -32 -11 -6 -14 -12 -7 -12 18 0 15 -31 -5
-47 -10 -7 -42 -30 -71 -50 -74 -50 -164 -141 -186 -186 -19 -42 -15 -90 11
-119 28 -31 123 -60 210 -64 137 -6 252 37 342 127 48 49 65 79 111 199 42
108 55 128 85 128 14 0 22 -5 19 -10 -3 -5 -15 -6 -27 -3 -20 5 -20 5 -4 -5
15 -9 22 -8 38 6 11 10 30 19 42 21 21 2 21 2 -3 -11 l-25 -14 27 1 c14 1 25
4 23 7 -8 13 13 30 29 24 14 -5 14 -9 4 -23 -12 -14 -11 -14 4 -2 10 7 15 17
12 22 -3 5 0 10 5 10 21 3 26 4 39 12 15 10 16 -5 1 -20 -8 -8 -7 -13 2 -18 7
-5 10 -4 6 2 -10 15 27 45 47 37 9 -3 16 -1 16 5 0 6 5 11 11 11 5 0 7 -6 3
-12 -4 -7 3 -4 16 7 l24 20 -22 -35 c-11 -19 -28 -48 -37 -65 -22 -41 -123
-176 -192 -256 -75 -85 -116 -116 -236 -179 -191 -99 -342 -204 -443 -307 -70
-72 -122 -164 -119 -209 2 -16 3 -34 4 -41 2 -21 53 -74 90 -92 177 -90 420
-84 617 15 142 71 243 191 304 359 51 140 249 648 260 667 5 10 10 22 10 27 0
5 10 31 22 58 12 26 22 50 23 53 8 32 18 49 26 45 5 -3 6 0 3 8 -7 18 30 29
46 13 9 -8 11 -8 8 3 -2 7 3 16 11 19 8 2 11 0 8 -5 -3 -5 0 -10 7 -10 9 0 12
7 8 16 -5 14 -4 14 14 1 10 -8 16 -10 12 -6 -9 10 58 60 70 52 4 -2 8 8 7 24
0 15 -3 26 -7 23 -5 -2 -8 3 -8 11 0 9 -3 15 -7 15 -22 -4 -33 2 -27 14 5 7 0
6 -11 -3 -17 -13 -18 -13 -10 0 7 12 6 13 -6 3 -9 -7 -20 -8 -29 -3 -8 5 -17
7 -21 4 -16 -9 127 353 149 378 8 10 18 16 21 13 4 -2 13 0 21 5 8 5 22 4 34
-2 19 -10 20 -10 7 6 -13 15 -12 17 13 12 15 -3 24 -1 21 5 -4 5 -2 9 3 9 6 0
24 14 42 30 24 22 30 34 22 43 -6 6 -11 17 -12 22 -1 6 -8 9 -16 7 -8 -2 -14
5 -15 15 0 10 -3 13 -5 6 -4 -8 -14 -9 -35 -3 -31 9 -37 2 -16 -19 8 -10 8
-12 0 -7 -6 3 -14 2 -18 -4 -3 -5 -11 -10 -17 -10 -6 0 -6 6 2 15 7 9 11 18 8
21 -3 2 21 73 54 157 33 84 61 159 63 167 2 8 16 47 30 85 38 99 121 344 130
383 8 40 -7 42 -33 5z m-987 -670 c0 -6 3 -14 7 -18 4 -4 4 -13 1 -21 -4 -10
-9 -8 -23 8 -10 12 -15 28 -13 36 6 15 28 11 28 -5z m10 -73 c-3 -5 -12 -10
-18 -10 -7 0 -6 4 3 10 19 12 23 12 15 0z m-84 -97 c13 -16 12 -17 -3 -4 -10
7 -18 15 -18 17 0 8 8 3 21 -13z m79 3 c0 -3 -4 -8 -10 -11 -5 -3 -10 -1 -10
4 0 6 5 11 10 11 6 0 10 -2 10 -4z m198 -52 c-2 -10 3 -19 10 -21 7 -3 10 1 6
11 -7 19 7 21 24 4 7 -7 12 -9 12 -5 0 4 17 -1 39 -12 21 -11 41 -17 45 -14 3
4 6 -2 6 -12 0 -15 -2 -15 -16 -5 -8 8 -14 9 -12 3 2 -6 0 -10 -3 -9 -3 0 -13
-5 -22 -13 -14 -11 -20 -11 -32 -1 -13 11 -19 8 -17 -11 1 -3 -6 -6 -13 -6
-10 0 -11 4 -6 11 6 7 2 20 -10 35 -20 25 -25 21 -9 -8 6 -13 5 -24 -6 -37
-10 -14 -14 -15 -12 -4 2 8 8 18 13 22 6 5 6 8 -1 8 -6 0 -10 14 -9 33 4 44 4
47 10 47 3 0 5 -7 3 -16z m-88 -49 c7 -8 9 -15 6 -15 -4 0 -14 7 -22 15 -9 8
-11 15 -6 15 5 0 15 -7 22 -15z m-27 -22 c-4 -10 -2 -14 5 -9 6 3 14 1 18 -5
4 -7 3 -9 -4 -5 -6 3 -13 -2 -17 -13 -3 -11 -13 -22 -22 -26 -15 -5 -15 -3 1
14 10 11 15 25 11 30 -3 6 -3 16 0 21 10 16 15 12 8 -7z m44 -35 c-3 -7 -5 -2
-5 12 0 14 2 19 5 13 2 -7 2 -19 0 -25z m298 -100 c-59 -114 -165 -300 -191
-335 -22 -29 -62 -40 -57 -15 1 6 -7 7 -20 4 -18 -5 -19 -7 -4 -10 9 -2 17 -8
17 -13 0 -14 -38 -11 -43 4 -3 7 -6 5 -6 -5 -1 -21 -21 -23 -40 -5 -10 10 -11
9 -6 -4 4 -10 0 -16 -9 -16 -8 0 -12 5 -9 11 3 6 3 8 -2 4 -4 -4 -15 -2 -23 5
-11 8 -14 8 -9 0 4 -7 -2 -18 -15 -27 -17 -12 -25 -13 -37 -3 -10 8 -13 8 -8
0 9 -15 -13 -23 -35 -12 -11 6 -19 5 -24 -3 -5 -7 -3 -8 7 -3 8 5 10 4 6 0 -4
-5 -21 -10 -37 -11 -22 -2 -28 1 -25 14 8 40 146 377 155 380 6 2 7 8 4 14 -5
7 -1 7 12 0 14 -8 23 -7 36 5 10 9 28 17 40 17 13 1 29 5 37 10 16 10 28 -6
37 -51 9 -48 21 -40 19 12 -1 25 2 48 6 51 5 3 9 1 9 -4 0 -16 83 -8 88 9 2 8
0 10 -5 4 -10 -12 -53 -15 -53 -4 0 5 6 9 13 10 6 0 21 3 32 5 11 3 32 6 46 8
15 2 32 7 39 11 9 6 11 4 5 -4 -5 -9 0 -8 16 2 13 8 32 13 42 12 9 -2 17 2 17
8 0 5 3 8 6 4 4 -3 -11 -39 -31 -79z m-365 -12 c0 -3 -4 -8 -10 -11 -5 -3 -10
-1 -10 4 0 6 5 11 10 11 6 0 10 -2 10 -4z m480 -261 c0 -2 -6 -5 -13 -8 -8 -3
-14 1 -14 8 0 7 6 11 14 8 7 -3 13 -6 13 -8z m-500 -125 c0 -5 -5 -10 -11 -10
-5 0 -7 5 -4 10 3 6 8 10 11 10 2 0 4 -4 4 -10z"/>
<path d="M1466 2231 c-3 -5 2 -15 12 -22 15 -12 16 -12 5 2 -7 9 -10 19 -6 22
3 4 4 7 0 7 -3 0 -8 -4 -11 -9z"/>
<path d="M1717 2001 c2 -2 -2 -10 -7 -16 -7 -9 -6 -16 5 -25 12 -10 15 -10 15
1 0 8 5 5 14 -6 11 -15 17 -17 28 -7 8 6 19 8 24 4 5 -4 0 3 -10 16 -14 16
-23 19 -30 12 -7 -7 -15 -5 -26 7 -8 10 -14 16 -13 14z m54 -44 c-13 -13 -26
-3 -16 12 3 6 11 8 17 5 6 -4 6 -10 -1 -17z"/>
<path d="M1897 1855 c-4 -8 -3 -16 1 -19 4 -3 9 4 9 15 2 23 -3 25 -10 4z"/>
<path d="M1826 1838 c3 -5 10 -6 15 -3 13 9 11 12 -6 12 -8 0 -12 -4 -9 -9z"/>
<path d="M1575 1790 c-3 -5 -1 -10 4 -10 6 0 11 5 11 10 0 6 -2 10 -4 10 -3 0
-8 -4 -11 -10z"/>
<path d="M1607 1789 c7 -7 15 -10 18 -7 3 3 -2 9 -12 12 -14 6 -15 5 -6 -5z"/>
<path d="M1686 1458 c3 -5 10 -6 15 -3 13 9 11 12 -6 12 -8 0 -12 -4 -9 -9z"/>
<path d="M1580 1451 c0 -6 4 -13 10 -16 6 -3 7 1 4 9 -7 18 -14 21 -14 7z"/>
<path d="M1473 1415 c0 -8 4 -12 9 -9 5 3 6 10 3 15 -9 13 -12 11 -12 -6z"/>
<path d="M1575 2391 c-3 -5 -2 -12 3 -15 5 -3 9 1 9 9 0 17 -3 19 -12 6z"/>
<path d="M1613 2385 c0 -8 4 -12 9 -9 5 3 6 10 3 15 -9 13 -12 11 -12 -6z"/>
<path d="M1546 2362 c-3 -5 1 -9 9 -9 8 0 12 4 9 9 -3 4 -7 8 -9 8 -2 0 -6 -4
-9 -8z"/>
<path d="M1310 2320 c0 -5 5 -10 11 -10 5 0 7 5 4 10 -3 6 -8 10 -11 10 -2 0
-4 -4 -4 -10z"/>
<path d="M1567 2308 c-5 -18 -8 -19 -21 -8 -11 8 -16 9 -16 1 0 -6 4 -11 9
-11 5 0 13 -9 16 -21 6 -19 8 -18 31 12 31 43 31 53 -1 14 -27 -34 -33 -27 -9
10 9 14 12 25 6 25 -5 0 -12 -10 -15 -22z"/>
<path d="M1390 2281 c0 -6 4 -13 10 -16 6 -3 7 1 4 9 -7 18 -14 21 -14 7z"/>
<path d="M1706 2281 c-3 -5 0 -11 7 -14 8 -3 14 1 14 9 0 16 -13 19 -21 5z"/>
<path d="M1405 2195 c11 -9 19 -19 17 -22 -4 -11 27 -12 34 -1 4 5 -1 17 -10
26 -11 11 -16 12 -16 4 0 -10 -5 -10 -22 -2 -22 11 -23 11 -3 -5z m45 -13 c0
-5 -7 -9 -15 -9 -8 0 -12 4 -9 9 3 4 9 8 15 8 5 0 9 -4 9 -8z"/>
<path d="M1335 2180 c-3 -5 -1 -10 4 -10 6 0 11 5 11 10 0 6 -2 10 -4 10 -3 0
-8 -4 -11 -10z"/>
<path d="M1916 2153 c-6 -14 -5 -15 5 -6 7 7 10 15 7 18 -3 3 -9 -2 -12 -12z"/>
<path d="M1777 2135 c-8 -8 -17 -12 -19 -9 -3 2 -10 -2 -17 -9 -8 -11 -6 -18
11 -33 12 -10 18 -14 15 -7 -4 6 0 16 10 22 11 6 13 11 5 11 -18 0 -4 20 22
30 16 7 17 9 4 9 -9 1 -23 -6 -31 -14z m-13 -36 c-3 -5 -10 -7 -15 -3 -5 3 -7
10 -3 15 3 5 10 7 15 3 5 -3 7 -10 3 -15z"/>
<path d="M1807 2119 c7 -7 15 -10 18 -7 3 3 -2 9 -12 12 -14 6 -15 5 -6 -5z"/>
<path d="M1790 2090 c-9 -6 -10 -10 -3 -10 6 0 15 5 18 10 8 12 4 12 -15 0z"/>
<path d="M1325 2080 c-3 -6 1 -7 9 -4 18 7 21 14 7 14 -6 0 -13 -4 -16 -10z"/>
<path d="M1373 2039 c-2 -23 3 -25 10 -4 4 8 3 16 -1 19 -4 3 -9 -4 -9 -15z"/>
<path d="M1430 2039 c0 -5 5 -7 10 -4 6 3 10 8 10 11 0 2 -4 4 -10 4 -5 0 -10
-5 -10 -11z"/>
<path d="M1930 2020 c0 -5 5 -10 11 -10 5 0 7 5 4 10 -3 6 -8 10 -11 10 -2 0
-4 -4 -4 -10z"/>
<path d="M1996 2018 c3 -5 10 -6 15 -3 13 9 11 12 -6 12 -8 0 -12 -4 -9 -9z"/>
<path d="M1966 2012 c-3 -5 1 -9 9 -9 8 0 12 4 9 9 -3 4 -7 8 -9 8 -2 0 -6 -4
-9 -8z"/>
<path d="M1361 1996 c-9 -11 -9 -16 1 -22 7 -4 10 -4 6 1 -4 4 -3 14 3 22 6 7
9 13 6 13 -2 0 -10 -6 -16 -14z"/>
<path d="M1386 1981 c-4 -5 3 -7 14 -4 23 6 26 13 6 13 -8 0 -17 -4 -20 -9z"/>
<path d="M2210 1939 c0 -5 5 -7 10 -4 6 3 10 8 10 11 0 2 -4 4 -10 4 -5 0 -10
-5 -10 -11z"/>
<path d="M2170 1936 c0 -2 8 -10 18 -17 15 -13 16 -12 3 4 -13 16 -21 21 -21
13z"/>
<path d="M1296 1922 c-3 -5 1 -9 9 -9 8 0 12 4 9 9 -3 4 -7 8 -9 8 -2 0 -6 -4
-9 -8z"/>
<path d="M1391 1914 c0 -11 3 -14 6 -6 3 7 2 16 -1 19 -3 4 -6 -2 -5 -13z"/>
<path d="M1235 1840 c-3 -5 -1 -10 4 -10 6 0 11 5 11 10 0 6 -2 10 -4 10 -3 0
-8 -4 -11 -10z"/>
<path d="M2119 1468 c-5 -18 -6 -38 -1 -34 7 8 12 36 6 36 -2 0 -4 -1 -5 -2z"/>
</g>
</svg>
